# Blender 5.1.0
# www.blender.org
mtllib lights2.mtl
o Plane.009
v -0.125000 0.000000 0.124996
v 0.125000 0.000000 0.124996
v -0.125000 0.000000 -0.125004
v 0.125000 0.000000 -0.125004
v -2.123977 0.000000 0.125309
v -1.873977 0.000000 0.125309
v -2.123977 0.000000 -0.124691
v -1.873977 0.000000 -0.124691
v -2.101619 1.978012 -1.616654
v -1.851619 1.978012 -1.616654
v -2.101619 2.228012 -1.616654
v -1.851619 2.228012 -1.616654
vn -0.0000 1.0000 -0.0000
vn -0.0000 -0.0000 1.0000
vt 1.000000 0.000000
vt 0.000000 1.000000
vt 0.000000 0.000000
vt 1.000000 1.000000
s 0
usemtl Material.008
f 2/1/1 3/2/1 1/3/1
f 6/1/1 7/2/1 5/3/1
f 10/1/2 11/2/2 9/3/2
f 2/1/1 4/4/1 3/2/1
f 6/1/1 8/4/1 7/2/1
f 10/1/2 12/4/2 11/2/2
