# Blender 5.1.1
# www.blender.org
mtllib floor1.mtl
o Cube.001
v -7.475717 -0.046600 -3.985734
v -7.475717 0.046600 -3.985734
v 3.475748 -0.046600 -3.985734
v 3.475748 0.046600 -3.985734
v -7.475717 -0.046600 3.985734
v -7.475717 0.046600 3.985734
v 3.475747 -0.046600 3.985734
v 3.475747 0.046600 3.985734
vn -0.0000 -0.0000 -1.0000
vn 1.0000 -0.0000 -0.0000
vn -0.0000 -0.0000 1.0000
vn -1.0000 -0.0000 -0.0000
vn -0.0000 -1.0000 -0.0000
vn -0.0000 1.0000 -0.0000
vt 11.994070 -22.130825
vt 4.920965 -11.083513
vt 4.920965 -22.130825
vt 11.994070 -11.083513
vt 4.920965 -0.036199
vt 11.994070 -0.036199
vt 4.920965 11.011110
vt 11.994070 11.011110
vt 4.920965 22.058422
vt -2.152141 11.011110
vt -2.152141 -0.036199
vt 19.067177 -0.036199
vt 11.994070 22.058422
vt 19.067177 11.011110
s 0
usemtl Material.006
f 2/1/1 3/2/1 1/3/1
f 4/4/2 7/5/2 3/2/2
f 8/6/3 5/7/3 7/5/3
f 6/8/4 1/9/4 5/7/4
f 7/5/5 1/10/5 3/11/5
f 4/12/6 6/8/6 8/6/6
f 2/1/1 4/4/1 3/2/1
f 4/4/2 8/6/2 7/5/2
f 8/6/3 6/8/3 5/7/3
f 6/8/4 2/13/4 1/9/4
f 7/5/5 5/7/5 1/10/5
f 4/12/6 2/14/6 6/8/6
