# Blender 5.1.0
# www.blender.org
mtllib lights2.mtl
o Plane.009
v 11.594379 14.737020 -37.530628
v 11.844379 14.737020 -37.530628
v 11.594379 14.737020 -37.780628
v 11.844379 14.737020 -37.780628
v 9.595402 14.737020 -37.530315
v 9.845402 14.737020 -37.530315
v 9.595402 14.737020 -37.780315
v 9.845402 14.737020 -37.780315
v 9.617760 16.715031 -39.272278
v 9.867760 16.715031 -39.272278
v 9.617760 16.965031 -39.272278
v 9.867760 16.965031 -39.272278
vn -0.0000 1.0000 -0.0000
vn -0.0000 -0.0000 1.0000
vt 1.000000 0.000000
vt 0.000000 1.000000
vt 0.000000 0.000000
vt 1.000000 1.000000
s 0
usemtl Material.008
f 2/1/1 3/2/1 1/3/1
f 6/1/1 7/2/1 5/3/1
f 10/1/2 11/2/2 9/3/2
f 2/1/1 4/4/1 3/2/1
f 6/1/1 8/4/1 7/2/1
f 10/1/2 12/4/2 11/2/2
