# Blender 5.1.0
# www.blender.org
mtllib lights1.mtl
o Plane.001
v 11.594336 14.737020 -36.281025
v 11.844336 14.737020 -36.281025
v 11.594336 14.737020 -36.531025
v 11.844336 14.737020 -36.531025
v 11.594336 14.737020 -36.531025
v 11.844336 14.737020 -36.531025
v 11.594336 14.737020 -36.781025
v 11.844336 14.737020 -36.781025
v 11.594336 14.737020 -36.781025
v 11.844336 14.737020 -36.781025
v 11.594336 14.737020 -37.031025
v 11.844336 14.737020 -37.031025
v 11.594336 14.737020 -37.031025
v 11.844336 14.737020 -37.031025
v 11.594336 14.737020 -37.281025
v 11.844336 14.737020 -37.281025
v 11.594336 14.737020 -37.281025
v 11.844336 14.737020 -37.281025
v 11.594336 14.737020 -37.531025
v 11.844336 14.737020 -37.531025
v 11.594728 14.737020 -37.530338
v 11.594728 14.737020 -37.780338
v 11.344728 14.737020 -37.530338
v 11.344728 14.737020 -37.780338
v 11.344728 14.737020 -37.530338
v 11.344728 14.737020 -37.780338
v 11.094728 14.737020 -37.530338
v 11.094728 14.737020 -37.780338
v 11.094728 14.737020 -37.530338
v 11.094728 14.737020 -37.780338
v 10.844728 14.737020 -37.530338
v 10.844728 14.737020 -37.780338
v 10.844728 14.737020 -37.530338
v 10.844728 14.737020 -37.780338
v 10.594728 14.737020 -37.530338
v 10.594728 14.737020 -37.780338
v 10.594728 14.737020 -37.530338
v 10.594728 14.737020 -37.780338
v 10.344728 14.737020 -37.530338
v 10.344728 14.737020 -37.780338
v 10.344728 14.737020 -37.530338
v 10.344728 14.737020 -37.780338
v 10.094728 14.737020 -37.530338
v 10.094728 14.737020 -37.780338
v 10.094728 14.737020 -37.530338
v 10.094728 14.737020 -37.780338
v 9.844727 14.737020 -37.530338
v 9.844727 14.737020 -37.780338
v 9.595224 14.737020 -37.778805
v 9.845224 14.737020 -37.778805
v 9.595224 14.737020 -38.028805
v 9.845224 14.737020 -38.028805
v 9.595224 14.737020 -38.028805
v 9.845224 14.737020 -38.028805
v 9.595224 14.737020 -38.278805
v 9.845224 14.737020 -38.278805
v 9.595224 14.737020 -38.278805
v 9.845224 14.737020 -38.278805
v 9.595224 14.737020 -38.528805
v 9.845224 14.737020 -38.528805
v 9.595224 14.737020 -38.528805
v 9.845224 14.737020 -38.528805
v 9.595224 14.737020 -38.778805
v 9.845224 14.737020 -38.778805
v 9.595224 14.737020 -38.778805
v 9.845224 14.737020 -38.778805
v 9.595224 14.737020 -39.028805
v 9.845224 14.737020 -39.028805
v 9.595224 14.737020 -39.028805
v 9.845224 14.737020 -39.028805
v 9.595224 14.737020 -39.278805
v 9.845224 14.737020 -39.278805
v 9.617760 14.733870 -39.272278
v 9.867760 14.733870 -39.272278
v 9.617760 14.983870 -39.272278
v 9.867760 14.983870 -39.272278
v 9.617760 14.983870 -39.272278
v 9.867760 14.983870 -39.272278
v 9.617760 15.233870 -39.272278
v 9.867760 15.233870 -39.272278
v 9.617760 15.233870 -39.272278
v 9.867760 15.233870 -39.272278
v 9.617760 15.483870 -39.272278
v 9.867760 15.483870 -39.272278
v 9.617760 15.483870 -39.272278
v 9.867760 15.483870 -39.272278
v 9.617760 15.733870 -39.272278
v 9.867760 15.733870 -39.272278
v 9.617760 15.733870 -39.272278
v 9.867760 15.733870 -39.272278
v 9.617760 15.983870 -39.272278
v 9.867760 15.983870 -39.272278
v 9.617760 15.983870 -39.272278
v 9.867760 15.983870 -39.272278
v 9.617760 16.233870 -39.272278
v 9.867760 16.233870 -39.272278
v 9.617760 16.233870 -39.272278
v 9.867760 16.233870 -39.272278
v 9.617760 16.483870 -39.272278
v 9.867760 16.483870 -39.272278
v 9.617760 16.483870 -39.272278
v 9.867760 16.483870 -39.272278
v 9.617760 16.733870 -39.272278
v 9.867760 16.733870 -39.272278
v 9.877224 16.965870 -39.267277
v 9.877224 16.715870 -39.267277
v 9.877224 16.965870 -39.517277
v 9.877224 16.715870 -39.517277
v 9.877224 16.965870 -39.517277
v 9.877224 16.715870 -39.517277
v 9.877224 16.965870 -39.767277
v 9.877224 16.715870 -39.767277
v 9.877224 16.965870 -39.767277
v 9.877224 16.715870 -39.767277
v 9.877224 16.965870 -40.017277
v 9.877224 16.715870 -40.017277
v 9.877224 16.965870 -40.017277
v 9.877224 16.715870 -40.017277
v 9.877224 16.965870 -40.267277
v 9.877224 16.715870 -40.267277
v 9.877224 16.965870 -40.267277
v 9.877224 16.715870 -40.267277
v 9.877224 16.965870 -40.517277
v 9.877224 16.715870 -40.517277
v 9.877224 16.965870 -40.517277
v 9.877224 16.715870 -40.517277
v 9.877224 16.965870 -40.767277
v 9.877224 16.715870 -40.767277
v 9.877224 16.965870 -40.767277
v 9.877224 16.715870 -40.767277
v 9.877224 16.965870 -41.017277
v 9.877224 16.715870 -41.017277
v 9.877224 16.965870 -41.017277
v 9.877224 16.715870 -41.017277
v 9.877224 16.965870 -41.267277
v 9.877224 16.715870 -41.267277
v 9.877224 16.965870 -41.267277
v 9.877224 16.715870 -41.267277
v 9.877224 16.965870 -41.517277
v 9.877224 16.715870 -41.517277
v 9.877224 16.965870 -41.517277
v 9.877224 16.715870 -41.517277
v 9.877224 16.965870 -41.767277
v 9.877224 16.715870 -41.767277
v 9.877224 16.965870 -41.767277
v 9.877224 16.715870 -41.767277
v 9.877224 16.965870 -42.017277
v 9.877224 16.715870 -42.017277
v 9.877224 16.965870 -42.017277
v 9.877224 16.715870 -42.017277
v 9.877224 16.965870 -42.267277
v 9.877224 16.715870 -42.267277
v 11.129224 17.054131 -43.032238
v 11.129224 16.804131 -43.032238
v 11.379224 17.054131 -43.032238
v 11.379224 16.804131 -43.032238
v 11.379224 17.054131 -43.032238
v 11.379224 16.804131 -43.032238
v 11.629224 17.054131 -43.032238
v 11.629224 16.804131 -43.032238
v 11.629224 17.054131 -43.032238
v 11.629224 16.804131 -43.032238
v 11.879224 17.054131 -43.032238
v 11.879224 16.804131 -43.032238
v 11.879224 17.054131 -43.032238
v 11.879224 16.804131 -43.032238
v 12.129224 17.054131 -43.032238
v 12.129224 16.804131 -43.032238
v 12.129224 17.054131 -43.032238
v 12.129224 16.804131 -43.032238
v 12.379224 17.054131 -43.032238
v 12.379224 16.804131 -43.032238
v 12.379224 17.054131 -43.032238
v 12.379224 16.804131 -43.032238
v 12.629224 17.054131 -43.032238
v 12.629224 16.804131 -43.032238
v 10.879224 13.808869 -43.032234
v 11.129224 13.808869 -43.032234
v 10.879224 14.058869 -43.032234
v 11.129224 14.058869 -43.032234
v 10.879224 14.058869 -43.032234
v 11.129224 14.058869 -43.032234
v 10.879224 14.308869 -43.032234
v 11.129224 14.308869 -43.032234
v 10.879224 14.308869 -43.032234
v 11.129224 14.308869 -43.032234
v 10.879224 14.558869 -43.032234
v 11.129224 14.558869 -43.032234
v 10.879224 14.558869 -43.032234
v 11.129224 14.558869 -43.032234
v 10.879224 14.808869 -43.032234
v 11.129224 14.808869 -43.032234
v 10.879224 14.808869 -43.032234
v 11.129224 14.808869 -43.032234
v 10.879224 15.058869 -43.032234
v 11.129224 15.058869 -43.032234
v 10.879224 15.058869 -43.032234
v 11.129224 15.058869 -43.032234
v 10.879224 15.308869 -43.032234
v 11.129224 15.308869 -43.032234
v 10.879224 15.308869 -43.032234
v 11.129224 15.308869 -43.032234
v 10.879224 15.558869 -43.032234
v 11.129224 15.558869 -43.032234
v 10.879224 15.558869 -43.032234
v 11.129224 15.558869 -43.032234
v 10.879224 15.808869 -43.032234
v 11.129224 15.808869 -43.032234
v 10.879224 15.808869 -43.032234
v 11.129224 15.808869 -43.032234
v 10.879224 16.058870 -43.032234
v 11.129224 16.058870 -43.032234
v 10.879224 16.058870 -43.032234
v 11.129224 16.058870 -43.032234
v 10.879224 16.308870 -43.032234
v 11.129224 16.308870 -43.032234
v 10.879224 16.308870 -43.032234
v 11.129224 16.308870 -43.032234
v 10.879224 16.558870 -43.032234
v 11.129224 16.558870 -43.032234
v 10.879224 16.558870 -43.032234
v 11.129224 16.558870 -43.032234
v 10.879224 16.808870 -43.032234
v 11.129224 16.808870 -43.032234
v 10.879224 13.889869 -39.803249
v 11.129224 13.889869 -39.803249
v 10.879224 13.889869 -40.053249
v 11.129224 13.889869 -40.053249
v 10.879224 13.889869 -40.053249
v 11.129224 13.889869 -40.053249
v 10.879224 13.889869 -40.303249
v 11.129224 13.889869 -40.303249
v 10.879224 13.889869 -40.303249
v 11.129224 13.889869 -40.303249
v 10.879224 13.889869 -40.553249
v 11.129224 13.889869 -40.553249
v 10.879224 13.889869 -40.553249
v 11.129224 13.889869 -40.553249
v 10.879224 13.889869 -40.803249
v 11.129224 13.889869 -40.803249
v 10.879224 13.889869 -40.803249
v 11.129224 13.889869 -40.803249
v 10.879224 13.889869 -41.053249
v 11.129224 13.889869 -41.053249
v 10.879224 13.889869 -41.053249
v 11.129224 13.889869 -41.053249
v 10.879224 13.889869 -41.303249
v 11.129224 13.889869 -41.303249
v 10.879224 13.889869 -41.303249
v 11.129224 13.889869 -41.303249
v 10.879224 13.889869 -41.553249
v 11.129224 13.889869 -41.553249
v 10.879224 13.889869 -41.553249
v 11.129224 13.889869 -41.553249
v 10.879224 13.889869 -41.803249
v 11.129224 13.889869 -41.803249
v 10.879224 13.889869 -41.803249
v 11.129224 13.889869 -41.803249
v 10.879224 13.889869 -42.053249
v 11.129224 13.889869 -42.053249
v 10.879224 13.889869 -42.053249
v 11.129224 13.889869 -42.053249
v 10.879224 13.889869 -42.303249
v 11.129224 13.889869 -42.303249
v 10.879224 13.889869 -42.303249
v 11.129224 13.889869 -42.303249
v 10.879224 13.889869 -42.553249
v 11.129224 13.889869 -42.553249
v 10.879224 13.889869 -42.553249
v 11.129224 13.889869 -42.553249
v 10.879224 13.889869 -42.803249
v 11.129224 13.889869 -42.803249
v 10.879224 13.889869 -42.803249
v 11.129224 13.889869 -42.803249
v 10.879224 13.889869 -43.053249
v 11.129224 13.889869 -43.053249
vn -0.0000 1.0000 -0.0000
vn -0.0000 -0.0000 1.0000
vn 1.0000 -0.0000 -0.0000
vt 1.000000 0.000000
vt 0.000000 1.000000
vt 0.000000 0.000000
vt 1.000000 1.000000
s 0
usemtl Material.002
f 2/1/1 3/2/1 1/3/1
f 6/1/1 7/2/1 5/3/1
f 10/1/1 11/2/1 9/3/1
f 14/1/1 15/2/1 13/3/1
f 18/1/1 19/2/1 17/3/1
f 22/1/1 23/2/1 21/3/1
f 26/1/1 27/2/1 25/3/1
f 30/1/1 31/2/1 29/3/1
f 34/1/1 35/2/1 33/3/1
f 38/1/1 39/2/1 37/3/1
f 42/1/1 43/2/1 41/3/1
f 45/3/1 48/4/1 47/2/1
f 50/1/1 51/2/1 49/3/1
f 54/1/1 55/2/1 53/3/1
f 58/1/1 59/2/1 57/3/1
f 62/1/1 63/2/1 61/3/1
f 66/1/1 67/2/1 65/3/1
f 70/1/1 71/2/1 69/3/1
f 74/1/2 75/2/2 73/3/2
f 78/1/2 79/2/2 77/3/2
f 82/1/2 83/2/2 81/3/2
f 86/1/2 87/2/2 85/3/2
f 90/1/2 91/2/2 89/3/2
f 94/1/2 95/2/2 93/3/2
f 98/1/2 99/2/2 97/3/2
f 102/1/2 103/2/2 101/3/2
f 106/1/3 107/2/3 105/3/3
f 110/1/3 111/2/3 109/3/3
f 114/1/3 115/2/3 113/3/3
f 118/1/3 119/2/3 117/3/3
f 122/1/3 123/2/3 121/3/3
f 126/1/3 127/2/3 125/3/3
f 130/1/3 131/2/3 129/3/3
f 134/1/3 135/2/3 133/3/3
f 138/1/3 139/2/3 137/3/3
f 142/1/3 143/2/3 141/3/3
f 146/1/3 147/2/3 145/3/3
f 150/1/3 151/2/3 149/3/3
f 154/1/2 155/2/2 153/3/2
f 158/1/2 159/2/2 157/3/2
f 162/1/2 163/2/2 161/3/2
f 166/1/2 167/2/2 165/3/2
f 170/1/2 171/2/2 169/3/2
f 174/1/2 175/2/2 173/3/2
f 178/1/2 179/2/2 177/3/2
f 182/1/2 183/2/2 181/3/2
f 186/1/2 187/2/2 185/3/2
f 190/1/2 191/2/2 189/3/2
f 194/1/2 195/2/2 193/3/2
f 198/1/2 199/2/2 197/3/2
f 202/1/2 203/2/2 201/3/2
f 206/1/2 207/2/2 205/3/2
f 210/1/2 211/2/2 209/3/2
f 214/1/2 215/2/2 213/3/2
f 218/1/2 219/2/2 217/3/2
f 222/1/2 223/2/2 221/3/2
f 226/1/1 227/2/1 225/3/1
f 230/1/1 231/2/1 229/3/1
f 234/1/1 235/2/1 233/3/1
f 238/1/1 239/2/1 237/3/1
f 242/1/1 243/2/1 241/3/1
f 246/1/1 247/2/1 245/3/1
f 250/1/1 251/2/1 249/3/1
f 254/1/1 255/2/1 253/3/1
f 258/1/1 259/2/1 257/3/1
f 262/1/1 263/2/1 261/3/1
f 266/1/1 267/2/1 265/3/1
f 270/1/1 271/2/1 269/3/1
f 274/1/1 275/2/1 273/3/1
f 2/1/1 4/4/1 3/2/1
f 6/1/1 8/4/1 7/2/1
f 10/1/1 12/4/1 11/2/1
f 14/1/1 16/4/1 15/2/1
f 18/1/1 20/4/1 19/2/1
f 22/1/1 24/4/1 23/2/1
f 26/1/1 28/4/1 27/2/1
f 30/1/1 32/4/1 31/2/1
f 34/1/1 36/4/1 35/2/1
f 38/1/1 40/4/1 39/2/1
f 42/1/1 44/4/1 43/2/1
f 45/3/1 46/1/1 48/4/1
f 50/1/1 52/4/1 51/2/1
f 54/1/1 56/4/1 55/2/1
f 58/1/1 60/4/1 59/2/1
f 62/1/1 64/4/1 63/2/1
f 66/1/1 68/4/1 67/2/1
f 70/1/1 72/4/1 71/2/1
f 74/1/2 76/4/2 75/2/2
f 78/1/2 80/4/2 79/2/2
f 82/1/2 84/4/2 83/2/2
f 86/1/2 88/4/2 87/2/2
f 90/1/2 92/4/2 91/2/2
f 94/1/2 96/4/2 95/2/2
f 98/1/2 100/4/2 99/2/2
f 102/1/2 104/4/2 103/2/2
f 106/1/3 108/4/3 107/2/3
f 110/1/3 112/4/3 111/2/3
f 114/1/3 116/4/3 115/2/3
f 118/1/3 120/4/3 119/2/3
f 122/1/3 124/4/3 123/2/3
f 126/1/3 128/4/3 127/2/3
f 130/1/3 132/4/3 131/2/3
f 134/1/3 136/4/3 135/2/3
f 138/1/3 140/4/3 139/2/3
f 142/1/3 144/4/3 143/2/3
f 146/1/3 148/4/3 147/2/3
f 150/1/3 152/4/3 151/2/3
f 154/1/2 156/4/2 155/2/2
f 158/1/2 160/4/2 159/2/2
f 162/1/2 164/4/2 163/2/2
f 166/1/2 168/4/2 167/2/2
f 170/1/2 172/4/2 171/2/2
f 174/1/2 176/4/2 175/2/2
f 178/1/2 180/4/2 179/2/2
f 182/1/2 184/4/2 183/2/2
f 186/1/2 188/4/2 187/2/2
f 190/1/2 192/4/2 191/2/2
f 194/1/2 196/4/2 195/2/2
f 198/1/2 200/4/2 199/2/2
f 202/1/2 204/4/2 203/2/2
f 206/1/2 208/4/2 207/2/2
f 210/1/2 212/4/2 211/2/2
f 214/1/2 216/4/2 215/2/2
f 218/1/2 220/4/2 219/2/2
f 222/1/2 224/4/2 223/2/2
f 226/1/1 228/4/1 227/2/1
f 230/1/1 232/4/1 231/2/1
f 234/1/1 236/4/1 235/2/1
f 238/1/1 240/4/1 239/2/1
f 242/1/1 244/4/1 243/2/1
f 246/1/1 248/4/1 247/2/1
f 250/1/1 252/4/1 251/2/1
f 254/1/1 256/4/1 255/2/1
f 258/1/1 260/4/1 259/2/1
f 262/1/1 264/4/1 263/2/1
f 266/1/1 268/4/1 267/2/1
f 270/1/1 272/4/1 271/2/1
f 274/1/1 276/4/1 275/2/1
